<?xml version="1.0" standalone="no"?>
<!DOCTYPE svg PUBLIC "-//W3C//DTD SVG 20010904//EN"
 "http://www.w3.org/TR/2001/REC-SVG-20010904/DTD/svg10.dtd">
<svg version="1.0" xmlns="http://www.w3.org/2000/svg"
 width="1042.000000pt" height="1042.000000pt" viewBox="0 0 1042.000000 1042.000000"
 preserveAspectRatio="xMidYMid meet">
<metadata>
Created by potrace 1.11, written by Peter Selinger 2001-2013
</metadata>
<g transform="translate(0.000000,1042.000000) scale(0.100000,-0.100000)"
fill="#000000" stroke="none">
<path d="M8558 8543 c7 -3 16 -2 19 1 4 3 -2 6 -13 5 -11 0 -14 -3 -6 -6z"/>
<path d="M8732 8375 c0 -16 2 -22 5 -12 2 9 2 23 0 30 -3 6 -5 -1 -5 -18z"/>
<path d="M7889 8103 c-13 -16 -12 -17 4 -4 9 7 17 15 17 17 0 8 -8 3 -21 -13z"/>
<path d="M7089 8093 c-13 -16 -12 -17 4 -4 9 7 17 15 17 17 0 8 -8 3 -21 -13z"/>
<path d="M7624 7878 l-19 -23 23 19 c21 18 27 26 19 26 -2 0 -12 -10 -23 -22z"/>
<path d="M8434 7468 l-19 -23 23 19 c21 18 27 26 19 26 -2 0 -12 -10 -23 -22z"/>
<path d="M5252 6809 c-29 -5 -113 -33 -185 -63 -154 -62 -192 -72 -307 -81
-185 -14 -244 -52 -281 -178 -53 -182 -73 -205 -254 -292 -155 -75 -206 -110
-246 -172 -45 -71 -68 -143 -104 -318 -18 -88 -42 -185 -54 -216 l-21 -56 -98
23 c-53 12 -117 25 -142 29 -25 4 -76 13 -115 22 -208 45 -444 81 -725 110
-136 14 -259 18 -550 17 -334 0 -392 -2 -530 -22 -373 -54 -593 -114 -828
-227 -121 -58 -262 -142 -262 -155 0 -14 60 -60 111 -85 209 -107 551 -187
1009 -237 l205 -22 -25 -53 -25 -53 -45 6 c-32 4 -78 -2 -154 -20 -59 -14
-126 -26 -149 -26 -35 0 -75 -19 -246 -117 l-205 -118 40 -7 c110 -19 143 -13
255 41 136 67 192 75 274 37 58 -26 58 -26 39 -47 -28 -31 -63 -46 -126 -52
-52 -5 -105 -23 -95 -33 2 -2 30 -9 63 -15 78 -15 112 -33 131 -74 20 -42 9
-90 -27 -116 -14 -10 -63 -28 -110 -40 -106 -26 -193 -75 -186 -104 3 -11 6
-30 6 -43 0 -13 12 -35 26 -49 24 -24 30 -25 90 -20 35 4 73 11 84 17 45 24 6
-17 -68 -72 -216 -161 -372 -293 -372 -314 0 -7 8 -15 17 -19 27 -10 602 -6
728 5 205 19 489 61 594 87 15 4 -27 -33 -98 -87 -259 -195 -529 -488 -692
-751 -87 -139 -189 -358 -189 -404 0 -8 25 -11 85 -8 47 2 85 -1 85 -5 0 -15
96 -41 191 -53 143 -18 409 19 479 67 20 13 59 31 87 39 56 17 100 59 84 79
-7 9 29 24 132 55 248 75 552 203 725 304 35 20 66 37 69 37 4 0 -7 -15 -23
-32 -39 -42 -145 -174 -208 -258 -27 -36 -54 -69 -59 -75 -19 -19 6 20 51 78
24 32 42 60 40 62 -2 2 -26 -2 -53 -11 l-50 -14 0 -69 0 -70 -72 -103 c-145
-207 -419 -686 -402 -702 3 -3 59 6 124 20 66 14 138 24 160 22 36 -3 42 -7
59 -42 17 -35 18 -46 8 -94 -14 -65 -5 -88 38 -97 43 -10 67 2 73 35 4 19 50
77 128 162 67 73 144 164 172 201 33 44 65 76 91 89 316 160 745 487 1005 765
l86 92 -81 -162 c-121 -245 -231 -563 -264 -767 -7 -41 -18 -97 -25 -125 -21
-79 -25 -107 -40 -320 -15 -203 -17 -460 -6 -594 l6 -73 54 63 c30 35 51 56
48 46 -22 -61 -21 -67 15 -67 47 0 76 24 88 73 24 96 32 119 52 139 13 13 21
35 23 67 2 42 14 65 120 217 344 495 691 1053 923 1486 93 173 96 178 131 183
101 15 153 30 230 66 l83 39 29 -20 c75 -54 84 -97 47 -233 -17 -63 -22 -112
-22 -212 -1 -142 14 -225 66 -375 40 -116 165 -368 228 -462 46 -67 57 -77 89
-83 53 -9 96 -37 126 -84 50 -75 294 -212 450 -251 90 -23 268 -35 333 -23
l42 8 -102 90 c-56 50 -116 100 -134 112 -17 12 -46 46 -64 75 -69 111 -83
126 -163 181 -326 222 -522 518 -627 950 -29 116 -66 339 -72 426 l-3 45 55
28 c56 28 180 73 183 67 1 -2 13 -26 27 -53 18 -37 57 -77 160 -164 431 -370
802 -774 1205 -1312 60 -80 112 -147 116 -150 4 -3 17 -26 28 -50 23 -52 36
-69 71 -93 25 -17 105 -24 114 -9 2 4 10 56 17 115 22 200 -16 418 -129 742
-33 94 -63 178 -67 188 -6 15 -1 17 49 17 54 0 57 1 73 35 16 33 15 36 -1 54
-10 11 -40 27 -66 36 -29 10 -57 28 -71 46 -13 17 -53 48 -90 70 -91 53 -119
88 -119 147 0 46 -1 48 -47 72 -26 14 -129 85 -227 158 -99 74 -214 151 -256
172 -78 39 -187 76 -197 67 -3 -3 8 -30 23 -59 44 -84 216 -247 377 -357 154
-105 212 -156 249 -222 54 -93 54 -93 -94 -32 -385 158 -778 378 -1014 568
l-52 42 102 32 c276 90 461 225 624 456 132 187 301 591 334 797 23 153 -19
236 -143 277 -79 26 -95 47 -81 109 6 23 23 59 38 78 91 114 89 110 89 193 -1
90 -11 112 -114 252 -83 113 -100 149 -140 305 -51 193 -98 272 -190 318 -57
29 -68 31 -236 56 -171 24 -227 48 -298 127 -120 133 -182 189 -223 201 -52
15 -128 15 -264 1 -134 -15 -186 -5 -317 63 -173 89 -237 105 -341 87z m10
-295 c9 -19 9 -41 1 -91 -12 -70 -5 -103 22 -103 8 0 21 16 29 35 12 28 20 35
43 35 33 0 53 -16 53 -43 0 -10 -29 -47 -65 -83 -60 -60 -68 -65 -93 -57 -39
13 -56 53 -43 100 17 60 14 110 -9 133 -25 25 -32 25 -55 0 -18 -20 -18 -22 0
-78 28 -80 18 -121 -24 -107 -18 5 -21 14 -21 66 0 60 -15 104 -44 128 -21 17
-20 34 2 60 15 19 21 20 47 10 25 -10 36 -9 60 4 46 25 83 22 97 -9z m-309
-133 c40 -79 46 -111 21 -132 -25 -20 -46 0 -77 77 -15 37 -34 75 -42 84 -20
22 -19 47 3 59 27 16 53 -8 95 -88z m633 -6 c-5 -54 -4 -65 15 -90 27 -34 17
-78 -19 -83 -39 -6 -52 15 -51 77 1 31 -2 78 -6 105 -7 41 -5 51 10 62 13 10
23 10 38 3 17 -10 19 -18 13 -74z m-774 -2 c29 -34 28 -52 -2 -87 -43 -48 -45
-78 -16 -170 18 -59 22 -83 14 -93 -25 -30 -68 -4 -102 64 -15 29 -65 78 -73
70 -11 -11 66 -165 103 -206 45 -50 57 -94 33 -118 -15 -15 -37 -6 -77 31 -86
81 -149 276 -112 347 6 10 21 19 34 19 27 0 47 21 66 69 32 80 96 116 132 74z
m97 -159 c28 -35 28 -81 1 -89 -32 -10 -70 20 -70 54 0 65 32 81 69 35z m511
7 c24 -45 6 -91 -36 -91 -38 0 -47 57 -14 90 25 25 37 25 50 1z m-346 -57 c9
-8 16 -29 16 -45 0 -36 22 -91 56 -141 28 -40 26 -71 -6 -88 -29 -16 -49 -1
-60 44 -21 78 -31 105 -56 141 -13 20 -24 46 -24 58 0 44 44 62 74 31z m-732
-130 c3 -2 16 -24 28 -49 22 -46 65 -88 119 -117 58 -32 66 -98 13 -106 -15
-2 -28 8 -47 39 -37 57 -101 125 -152 161 -43 29 -53 54 -31 76 10 10 48 8 70
-4z m2032 -17 c10 -7 17 -22 15 -33 -4 -21 -123 -104 -149 -104 -23 0 -40 20
-40 47 0 17 16 31 73 63 82 46 77 44 101 27z m-2129 -233 c33 -23 84 -53 113
-68 52 -27 62 -42 40 -64 -24 -24 -69 -14 -114 28 -24 22 -68 51 -99 65 -59
26 -70 49 -39 79 17 18 16 19 99 -40z m623 -184 c50 -55 92 -107 92 -115 0
-14 -26 -45 -39 -45 -14 0 -168 118 -185 141 -19 27 -21 90 -4 107 24 24 45
10 136 -88z m-2313 -1 c261 -14 805 -84 1000 -129 44 -10 114 -26 156 -35 l76
-16 -54 -97 c-29 -53 -61 -119 -70 -147 -18 -53 -23 -162 -11 -231 l8 -41 -93
-7 c-167 -12 -999 -18 -1147 -8 -125 8 -154 13 -210 38 -47 20 -86 29 -142 32
-68 4 -83 1 -122 -21 -44 -25 -48 -25 -158 -16 -370 31 -683 87 -917 166 -110
36 -219 87 -261 121 l-24 20 56 35 c163 105 343 181 561 237 413 106 755 132
1352 99z m2139 -58 c15 -16 63 -57 107 -92 83 -67 99 -90 79 -114 -18 -21 -27
-19 -89 23 -31 20 -92 49 -136 63 -89 30 -105 45 -87 83 11 25 66 66 88 66 5
0 23 -13 38 -29z m-435 -67 c88 -35 106 -50 95 -79 -13 -34 -72 -26 -108 14
-14 16 -31 21 -67 21 -81 0 -88 54 -12 79 2 1 43 -15 92 -35z m534 -186 c21
-25 22 -54 2 -61 -15 -6 -172 1 -212 9 -18 3 -23 11 -23 38 0 18 3 35 6 39 4
3 52 4 108 0 84 -4 104 -8 119 -25z m-549 -104 c81 -29 97 -44 76 -69 -17 -20
-42 -19 -98 4 -26 11 -65 22 -87 25 -22 3 -41 5 -42 6 -2 0 -3 11 -3 25 0 17
8 29 23 35 25 11 26 11 131 -26z m512 -89 c13 -34 -15 -45 -113 -45 -97 0
-114 8 -99 45 8 22 204 22 212 0z m-570 -120 c16 -8 52 -15 81 -15 58 0 80
-20 61 -54 -9 -16 -19 -17 -97 -11 -104 8 -117 11 -125 32 -8 19 19 63 38 63
8 0 27 -7 42 -15z m614 -3 c0 -12 -30 -35 -88 -70 -129 -76 -183 -90 -182 -45
1 12 20 27 58 45 31 15 81 41 111 58 62 34 101 39 101 12z m-1134 -99 c3 -10
37 -98 75 -196 65 -164 98 -278 99 -334 0 -16 -8 -23 -32 -28 -51 -11 -397
-127 -553 -185 -183 -68 -465 -205 -642 -312 l-143 -86 -157 -31 c-192 -36
-258 -47 -433 -67 -151 -17 -670 -31 -745 -19 l-49 7 64 61 c179 167 186 173
175 136 -4 -13 -10 -26 -14 -29 -10 -8 -13 -41 -7 -66 5 -17 16 -25 41 -30 32
-6 38 -3 87 52 67 73 175 126 448 219 107 37 231 85 274 108 77 40 78 41 50
49 -33 9 -75 3 -189 -23 -44 -10 -94 -19 -111 -19 -17 0 -131 -39 -253 -86
-123 -47 -225 -84 -227 -81 -9 9 102 81 151 98 28 9 86 33 130 52 44 19 97 38
118 42 34 7 37 10 37 39 l0 32 88 11 c48 6 156 34 244 61 86 28 178 53 205 57
72 10 83 15 83 36 0 12 -12 24 -36 34 -40 16 -147 46 -175 48 -12 1 -15 5 -9
12 7 8 1 10 -18 7 -32 -4 -142 30 -192 61 -51 31 -111 88 -104 98 3 5 88 9
189 9 120 0 207 5 252 14 92 19 261 38 303 34 31 -3 21 -8 -85 -51 -66 -26
-131 -55 -145 -63 l-25 -15 25 4 c14 3 96 35 184 71 l158 66 185 0 c138 0 184
3 181 12 -7 21 -56 51 -95 58 l-38 6 60 17 c75 22 114 39 70 31 -16 -3 -61
-13 -98 -22 -65 -16 -69 -16 -81 0 -11 15 -54 21 -294 37 -201 14 -289 24
-309 35 -26 14 -1 15 277 16 168 0 364 3 435 6 192 9 474 21 523 22 33 2 44
-2 48 -15z m555 -122 c16 -16 29 -39 29 -51 0 -40 110 -236 199 -354 108 -144
284 -334 318 -342 16 -5 38 1 63 15 50 28 73 27 167 -8 148 -54 287 -74 606
-87 244 -10 436 14 637 78 166 53 230 99 282 202 74 147 238 380 308 439 22
19 43 27 69 27 55 0 78 -30 98 -125 13 -66 14 -87 3 -134 -27 -121 -93 -208
-223 -294 -83 -55 -117 -96 -117 -144 0 -28 -18 -48 -80 -91 -45 -31 -55 -44
-56 -68 0 -16 -8 -43 -16 -60 -21 -39 -142 -147 -238 -211 -124 -83 -164 -92
-510 -122 -88 -7 -114 -6 -166 9 -34 10 -72 25 -85 33 -13 8 -64 22 -114 32
-49 9 -137 35 -195 57 -252 97 -401 138 -575 162 -116 15 -176 33 -231 67 -40
25 -49 49 -34 95 18 52 7 76 -68 151 -38 37 -88 97 -112 132 -63 93 -132 239
-138 289 -4 37 -1 47 24 73 34 36 82 39 126 8 16 -12 31 -20 32 -18 2 2 -16
47 -40 99 -47 103 -52 130 -28 154 22 22 31 20 65 -13z m-2424 -157 c-3 -3
-12 -4 -19 -1 -8 3 -5 6 6 6 11 1 17 -2 13 -5z m2037 -331 c-5 -2 -31 -17 -59
-33 -91 -52 -298 -157 -405 -203 -208 -90 -741 -269 -756 -254 -13 13 386 219
591 305 213 90 626 219 634 198 2 -6 0 -11 -5 -13z m108 -275 c25 -51 75 -137
112 -191 l66 -99 -27 -21 c-142 -111 -301 -253 -469 -423 -169 -169 -216 -210
-289 -253 -136 -81 -346 -183 -505 -246 -80 -32 -157 -64 -172 -71 -29 -15
-264 -84 -283 -84 -5 1 -23 11 -39 24 l-29 24 56 16 c33 10 99 46 166 90 61
41 118 77 128 79 10 3 30 8 46 11 26 6 27 8 27 76 0 129 24 157 215 250 138
67 195 108 256 186 l24 32 90 -19 c75 -15 100 -17 150 -8 93 17 156 52 224
124 102 109 104 175 5 209 -45 15 -46 15 -80 -10 -18 -15 -43 -42 -55 -60 -24
-40 -81 -71 -184 -102 -71 -22 -139 -67 -150 -100 -4 -13 -23 -22 -66 -30
-162 -30 -397 -182 -786 -510 -119 -100 -200 -162 -214 -162 -13 0 -37 -18
-61 -45 -22 -25 -59 -56 -81 -69 -70 -41 -210 -69 -347 -70 -79 -1 -78 -1 -95
-63 0 0 -31 -4 -69 -8 l-69 -8 7 29 c11 42 103 222 184 357 89 148 178 262
317 406 189 195 510 449 598 471 301 78 592 175 783 260 107 48 451 215 484
236 l35 21 27 -78 c14 -43 46 -120 70 -171z m218 -330 c1 -36 -426 -407 -555
-482 -37 -22 187 198 309 302 49 43 119 103 155 134 65 57 91 70 91 46z m305
-263 c46 -31 126 -77 177 -104 l94 -47 -64 -85 c-272 -361 -760 -792 -1155
-1020 -56 -33 -105 -59 -108 -59 -4 0 -5 8 -3 18 3 10 -8 30 -30 51 -48 47
-95 46 -196 -3 -41 -20 -79 -36 -85 -36 -5 0 -32 -16 -58 -36 -33 -24 -50 -44
-54 -65 -13 -65 -48 4 -38 74 7 46 33 100 87 180 22 32 50 82 63 110 12 29 50
86 84 127 87 107 107 154 103 243 -1 15 -8 27 -16 27 -17 0 -207 -254 -339
-455 -165 -251 -235 -380 -248 -452 -10 -57 -13 -61 -41 -67 -17 -3 -33 -5
-34 -3 -2 2 18 40 44 85 228 395 458 732 688 1007 113 135 122 144 261 238
136 92 376 293 497 415 l89 90 99 -89 c55 -49 137 -114 183 -144z m450 -214
c168 -56 346 -89 556 -104 l36 -2 -85 -155 c-155 -286 -352 -615 -565 -945
-124 -191 -427 -635 -434 -635 -5 0 4 14 104 175 117 186 352 693 390 839 24
94 4 396 -27 396 -11 0 -131 -245 -181 -370 -23 -58 -74 -197 -114 -310 -40
-113 -87 -241 -103 -285 -17 -44 -77 -210 -133 -370 -56 -159 -108 -303 -117
-320 -23 -45 -63 -95 -72 -90 -5 3 -6 -3 -4 -12 3 -10 -8 -33 -24 -53 l-30
-35 -7 139 c-13 246 0 423 56 771 69 422 235 861 455 1206 61 95 155 210 168
205 6 -3 65 -23 131 -45z m-1950 -1280 c-12 -10 -104 -41 -119 -40 -6 0 18 11
54 24 76 27 77 28 65 16z m-174 -57 c-25 -8 -61 -16 -80 -19 -20 -2 -7 4 29
14 75 22 117 26 51 5z m149 -9 c-19 -7 -42 -13 -50 -13 -8 0 1 6 20 13 19 7
42 13 50 13 8 0 -1 -6 -20 -13z"/>
<path d="M4250 4435 c-16 -19 -1 -65 52 -165 51 -96 130 -192 229 -280 156
-138 269 -198 422 -224 47 -9 112 -26 144 -39 95 -40 110 -41 156 -13 48 28
104 83 94 92 -4 4 -93 9 -199 11 -106 3 -209 9 -228 15 -71 22 -245 155 -385
295 -88 88 -214 242 -241 295 -16 32 -26 35 -44 13z"/>
<path d="M6160 3920 c-19 -5 -84 -16 -144 -25 -60 -8 -179 -31 -265 -49 -86
-19 -177 -37 -203 -41 -27 -4 -48 -12 -48 -17 0 -17 460 -3 545 16 97 22 218
80 213 103 -4 21 -45 26 -98 13z"/>
<path d="M5867 3636 c-200 -32 -216 -38 -217 -78 0 -37 38 -48 161 -48 142 0
224 21 275 71 36 35 42 57 22 77 -15 15 -5 16 -241 -22z"/>
<path d="M838 6243 c12 -2 30 -2 40 0 9 3 -1 5 -23 4 -22 0 -30 -2 -17 -4z"/>
<path d="M1438 6243 c12 -2 32 -2 45 0 12 2 2 4 -23 4 -25 0 -35 -2 -22 -4z"/>
<path d="M1683 6233 c9 -2 25 -2 35 0 9 3 1 5 -18 5 -19 0 -27 -2 -17 -5z"/>
<path d="M1843 6223 c15 -2 37 -2 50 0 12 2 0 4 -28 4 -27 0 -38 -2 -22 -4z"/>
<path d="M2033 6213 c9 -2 23 -2 30 0 6 3 -1 5 -18 5 -16 0 -22 -2 -12 -5z"/>
<path d="M2183 6203 c9 -2 23 -2 30 0 6 3 -1 5 -18 5 -16 0 -22 -2 -12 -5z"/>
<path d="M2338 6193 c6 -2 18 -2 25 0 6 3 1 5 -13 5 -14 0 -19 -2 -12 -5z"/>
<path d="M2513 6183 c9 -2 23 -2 30 0 6 3 -1 5 -18 5 -16 0 -22 -2 -12 -5z"/>
<path d="M788 6143 c7 -3 16 -2 19 1 4 3 -2 6 -13 5 -11 0 -14 -3 -6 -6z"/>
<path d="M1187 6143 c18 -2 50 -2 70 0 21 2 7 4 -32 4 -38 0 -55 -2 -38 -4z"/>
<path d="M1428 6143 c7 -3 16 -2 19 1 4 3 -2 6 -13 5 -11 0 -14 -3 -6 -6z"/>
<path d="M1593 5925 c0 -27 2 -38 4 -22 2 15 2 37 0 50 -2 12 -4 0 -4 -28z"/>
<path d="M2918 5913 c17 -2 47 -2 65 0 17 2 3 4 -33 4 -36 0 -50 -2 -32 -4z"/>
<path d="M2678 5863 c7 -3 16 -2 19 1 4 3 -2 6 -13 5 -11 0 -14 -3 -6 -6z"/>
<path d="M2593 5853 c9 -2 23 -2 30 0 6 3 -1 5 -18 5 -16 0 -22 -2 -12 -5z"/>
<path d="M2078 5843 c18 -2 45 -2 60 0 15 2 0 4 -33 4 -33 0 -45 -2 -27 -4z"/>
<path d="M2318 5843 c34 -2 88 -2 120 0 31 2 3 3 -63 3 -66 0 -92 -1 -57 -3z"/>
<path d="M1968 5833 c7 -3 16 -2 19 1 4 3 -2 6 -13 5 -11 0 -14 -3 -6 -6z"/>
<path d="M2913 5823 c9 -2 23 -2 30 0 6 3 -1 5 -18 5 -16 0 -22 -2 -12 -5z"/>
<path d="M1620 5816 c0 -2 8 -10 18 -17 15 -13 16 -12 3 4 -13 16 -21 21 -21
13z"/>
<path d="M3118 5783 c7 -3 16 -2 19 1 4 3 -2 6 -13 5 -11 0 -14 -3 -6 -6z"/>
<path d="M1708 5773 c7 -3 16 -2 19 1 4 3 -2 6 -13 5 -11 0 -14 -3 -6 -6z"/>
<path d="M8148 5301 l-508 -176 0 -40 c1 -92 68 -170 170 -199 191 -54 1051
-50 1278 6 82 19 192 84 192 112 0 16 -36 49 -77 70 -18 9 -76 20 -130 26
-126 13 -172 20 -177 29 -3 4 175 51 394 105 l399 97 10 31 c18 50 14 77 -11
82 -13 3 -241 10 -508 16 -267 6 -494 12 -505 14 -11 2 -248 -76 -527 -173z"/>
<path d="M9628 4543 c7 -3 16 -2 19 1 4 3 -2 6 -13 5 -11 0 -14 -3 -6 -6z"/>
<path d="M7338 4235 c-34 -19 -68 -83 -68 -125 0 -76 54 -122 243 -207 238
-107 424 -155 597 -156 152 0 514 20 656 37 271 32 470 78 771 178 239 79 262
94 270 172 l6 46 -79 0 c-121 0 -189 -23 -422 -138 -244 -120 -398 -161 -644
-169 -301 -10 -508 44 -821 215 -246 134 -435 189 -509 147z"/>
<path d="M8405 3540 c38 -38 72 -70 74 -70 3 0 -26 32 -64 70 -38 39 -72 70
-74 70 -3 0 26 -31 64 -70z"/>
<path d="M8175 3330 c10 -11 20 -20 23 -20 3 0 -3 9 -13 20 -10 11 -20 20 -23
20 -3 0 3 -9 13 -20z"/>
<path d="M8675 3270 c10 -11 20 -20 23 -20 3 0 -3 9 -13 20 -10 11 -20 20 -23
20 -3 0 3 -9 13 -20z"/>
<path d="M8360 3276 c0 -2 8 -10 18 -17 15 -13 16 -12 3 4 -13 16 -21 21 -21
13z"/>
<path d="M8435 3210 c10 -11 20 -20 23 -20 3 0 -3 9 -13 20 -10 11 -20 20 -23
20 -3 0 3 -9 13 -20z"/>
<path d="M8710 3226 c0 -2 8 -10 18 -17 15 -13 16 -12 3 4 -13 16 -21 21 -21
13z"/>
<path d="M8315 3190 c10 -11 20 -20 23 -20 3 0 -3 9 -13 20 -10 11 -20 20 -23
20 -3 0 3 -9 13 -20z"/>
<path d="M8525 3130 c10 -11 20 -20 23 -20 3 0 -3 9 -13 20 -10 11 -20 20 -23
20 -3 0 3 -9 13 -20z"/>
<path d="M8395 3120 c10 -11 20 -20 23 -20 3 0 -3 9 -13 20 -10 11 -20 20 -23
20 -3 0 3 -9 13 -20z"/>
<path d="M8580 3086 c0 -2 8 -10 18 -17 15 -13 16 -12 3 4 -13 16 -21 21 -21
13z"/>
<path d="M8510 3027 c0 -2 15 -16 33 -33 l32 -29 -29 33 c-28 30 -36 37 -36
29z"/>
<path d="M8665 2880 c10 -11 20 -20 23 -20 3 0 -3 9 -13 20 -10 11 -20 20 -23
20 -3 0 3 -9 13 -20z"/>
<path d="M8720 2837 c0 -2 15 -16 33 -33 l32 -29 -29 33 c-28 30 -36 37 -36
29z"/>
<path d="M8120 2555 c19 -19 36 -35 39 -35 3 0 -10 16 -29 35 -19 19 -36 35
-39 35 -3 0 10 -16 29 -35z"/>
<path d="M8902 2480 c0 -14 2 -19 5 -12 2 6 2 18 0 25 -3 6 -5 1 -5 -13z"/>
<path d="M8500 2459 c0 -6 24 -34 53 -63 67 -68 117 -85 282 -97 72 -5 139
-12 150 -15 50 -14 74 -27 68 -38 -4 -8 -2 -8 7 1 8 7 22 8 43 2 18 -5 35 -9
39 -9 17 0 48 42 48 64 0 38 -35 56 -106 56 -53 0 -67 4 -93 26 -17 14 -31 32
-31 40 0 11 -7 13 -27 7 -51 -13 -167 -6 -253 16 -91 22 -180 28 -180 10z"/>
<path d="M8320 2296 c0 -2 8 -10 18 -17 15 -13 16 -12 3 4 -13 16 -21 21 -21
13z"/>
<path d="M9004 2188 l-19 -23 23 19 c12 11 22 21 22 23 0 8 -8 2 -26 -19z"/>
<path d="M8703 2063 c9 -2 25 -2 35 0 9 3 1 5 -18 5 -19 0 -27 -2 -17 -5z"/>
<path d="M7761 1514 c0 -11 3 -14 6 -6 3 7 2 16 -1 19 -3 4 -6 -2 -5 -13z"/>
<path d="M4599 1353 c-13 -16 -12 -17 4 -4 9 7 17 15 17 17 0 8 -8 3 -21 -13z"/>
<path d="M5714 838 l-29 -33 33 29 c17 17 32 31 32 33 0 8 -8 1 -36 -29z"/>
</g>
</svg>
