<?xml version="1.0" standalone="no"?>
<!DOCTYPE svg PUBLIC "-//W3C//DTD SVG 20010904//EN"
 "http://www.w3.org/TR/2001/REC-SVG-20010904/DTD/svg10.dtd">
<svg version="1.0" xmlns="http://www.w3.org/2000/svg"
 width="300.000000pt" height="300.000000pt" viewBox="0 0 300.000000 300.000000"
 preserveAspectRatio="xMidYMid meet">
<metadata>
Created by potrace 1.11, written by Peter Selinger 2001-2013
</metadata>
<g transform="translate(0.000000,300.000000) scale(0.100000,-0.100000)"
fill="#000000" stroke="none">
<path d="M320 2844 c-80 -24 -157 -119 -161 -200 -4 -79 33 -188 76 -224 8 -7
15 -17 15 -22 0 -5 9 -19 20 -31 29 -30 126 -229 150 -307 25 -79 47 -163 55
-210 3 -19 8 -42 10 -50 16 -59 24 -363 12 -490 -12 -134 -40 -261 -86 -392
-39 -116 -88 -209 -165 -323 -82 -120 -100 -178 -80 -268 15 -70 49 -117 114
-155 38 -23 56 -27 120 -26 84 0 118 15 240 100 62 44 210 122 261 139 13 4
26 8 29 9 76 30 354 91 370 81 5 -3 11 -2 14 3 11 18 461 5 516 -15 8 -2 31
-7 50 -9 19 -2 80 -18 135 -34 55 -17 105 -32 110 -34 6 -1 27 -10 49 -19 21
-9 42 -17 47 -17 5 0 9 -5 9 -10 0 -6 3 -9 8 -8 12 4 124 -60 182 -104 30 -22
73 -49 95 -59 176 -78 356 27 356 208 0 77 -19 126 -86 222 -56 80 -140 231
-129 231 4 0 0 10 -8 22 -8 13 -20 41 -27 63 -7 22 -15 47 -18 55 -3 8 -7 20
-8 25 -2 6 -8 30 -14 53 -46 168 -62 370 -48 597 6 96 11 139 32 244 9 49 57
206 70 232 8 14 11 29 8 33 -4 3 -1 6 5 6 7 0 12 7 12 17 0 21 60 129 124 223
77 113 96 162 89 235 -5 65 -22 103 -68 150 -51 52 -115 75 -194 69 -61 -4
-107 -24 -176 -74 -68 -50 -181 -115 -235 -136 -25 -10 -48 -22 -51 -27 -3 -5
-10 -8 -15 -8 -5 0 -45 -10 -90 -24 -94 -29 -200 -52 -281 -62 -79 -9 -427 -9
-483 0 -25 4 -63 10 -85 13 -61 8 -235 55 -283 75 -23 10 -44 18 -47 18 -18 1
-182 91 -246 137 -43 30 -93 61 -113 69 -49 21 -134 25 -186 9z m1129 -606
c31 -32 60 -58 66 -58 5 0 41 32 79 71 l69 70 48 -47 49 -48 -70 -72 c-39 -39
-70 -75 -70 -79 0 -4 158 -165 350 -357 193 -193 350 -352 350 -354 0 -3 -21
-25 -46 -51 l-46 -46 -72 72 c-39 39 -74 71 -76 71 -3 0 -5 -135 -5 -300 l1
-300 -243 0 c-187 0 -243 -3 -244 -12 -1 -7 -2 -37 -3 -67 l-1 -54 -52 1 c-29
0 -61 1 -70 1 -16 1 -18 10 -15 66 l4 65 -249 2 -248 3 0 298 c0 163 -2 297
-6 297 -3 0 -36 -32 -73 -70 -76 -78 -69 -77 -133 -11 -18 19 -30 37 -28 40 3
3 162 164 355 356 l349 351 -74 74 -73 75 46 46 c53 54 46 55 131 -33z"/>
<path d="M1251 1715 c-146 -145 -262 -268 -258 -272 4 -4 27 -6 51 -4 35 2 44
-1 47 -16 3 -10 4 -120 3 -245 l-1 -228 29 -1 c15 0 89 -1 163 -1 74 0 141 1
149 1 10 1 14 23 14 99 0 53 1 163 1 243 l1 147 296 0 c163 0 298 2 300 4 2 2
-117 124 -264 271 l-267 267 -264 -265z"/>
<path d="M1589 1288 c-5 -63 -3 -322 2 -330 6 -9 206 -14 326 -9 21 1 21 3 20
174 l-2 172 -172 3 c-135 2 -173 0 -174 -10z"/>
</g>
</svg>
